<svg xmlns="http://www.w3.org/2000/svg" width="1032" height="585" viewBox="0 0 1032 585" font-family="ui-monospace, SFMono-Regular, Menlo, Consolas, 'DejaVu Sans Mono', monospace" font-size="14">
<title>Inside a building, where somebody is home</title>
<rect width="1032" height="585" fill="rgb(42,38,32)"/>
<g shape-rendering="crispEdges"><rect x="415.20" y="165.00" width="34.10" height="17" fill="rgb(15,14,12)"/><rect x="448.80" y="165.00" width="17.30" height="17" fill="rgb(17,15,14)"/><rect x="465.60" y="165.00" width="17.30" height="17" fill="rgb(20,18,16)"/><rect x="482.40" y="165.00" width="17.30" height="17" fill="rgb(22,20,18)"/><rect x="499.20" y="165.00" width="17.30" height="17" fill="rgb(24,22,19)"/><rect x="516.00" y="165.00" width="17.30" height="17" fill="rgb(24,22,20)"/><rect x="532.80" y="165.00" width="17.30" height="17" fill="rgb(24,22,19)"/><rect x="549.60" y="165.00" width="17.30" height="17" fill="rgb(22,20,18)"/><rect x="566.40" y="165.00" width="17.30" height="17" fill="rgb(20,18,16)"/><rect x="583.20" y="165.00" width="17.30" height="17" fill="rgb(17,15,14)"/><rect x="398.40" y="182.00" width="34.10" height="17" fill="rgb(29,26,23)"/><rect x="432.00" y="182.00" width="17.30" height="17" fill="rgb(33,31,27)"/><rect x="448.80" y="182.00" width="17.30" height="17" fill="rgb(41,38,33)"/><rect x="465.60" y="182.00" width="17.30" height="17" fill="rgb(48,44,38)"/><rect x="482.40" y="182.00" width="17.30" height="17" fill="rgb(53,48,42)"/><rect x="499.20" y="182.00" width="17.30" height="17" fill="rgb(56,51,45)"/><rect x="516.00" y="182.00" width="17.30" height="17" fill="rgb(57,53,46)"/><rect x="532.80" y="182.00" width="17.30" height="17" fill="rgb(56,51,45)"/><rect x="549.60" y="182.00" width="17.30" height="17" fill="rgb(53,48,42)"/><rect x="566.40" y="182.00" width="17.30" height="17" fill="rgb(48,44,38)"/><rect x="583.20" y="182.00" width="17.30" height="17" fill="rgb(22,20,18)"/><rect x="381.60" y="199.00" width="17.30" height="17" fill="rgb(15,14,12)"/><rect x="398.40" y="199.00" width="17.30" height="17" fill="rgb(29,26,23)"/><rect x="415.20" y="199.00" width="17.30" height="17" fill="rgb(43,39,35)"/><rect x="432.00" y="199.00" width="17.30" height="17" fill="rgb(55,51,45)"/><rect x="448.80" y="199.00" width="17.30" height="17" fill="rgb(67,61,54)"/><rect x="465.60" y="199.00" width="17.30" height="17" fill="rgb(77,71,62)"/><rect x="482.40" y="199.00" width="17.30" height="17" fill="rgb(85,78,69)"/><rect x="499.20" y="199.00" width="17.30" height="17" fill="rgb(91,83,73)"/><rect x="516.00" y="199.00" width="17.30" height="17" fill="rgb(92,85,74)"/><rect x="532.80" y="199.00" width="17.30" height="17" fill="rgb(91,83,73)"/><rect x="549.60" y="199.00" width="17.30" height="17" fill="rgb(85,78,69)"/><rect x="566.40" y="199.00" width="17.30" height="17" fill="rgb(77,71,62)"/><rect x="583.20" y="199.00" width="17.30" height="17" fill="rgb(26,24,21)"/><rect x="381.60" y="216.00" width="17.30" height="17" fill="rgb(15,14,12)"/><rect x="398.40" y="216.00" width="17.30" height="17" fill="rgb(29,26,23)"/><rect x="415.20" y="216.00" width="17.30" height="17" fill="rgb(51,46,41)"/><rect x="432.00" y="216.00" width="17.30" height="17" fill="rgb(64,59,52)"/><rect x="448.80" y="216.00" width="17.30" height="17" fill="rgb(77,71,62)"/><rect x="465.60" y="216.00" width="17.30" height="17" fill="rgb(89,81,71)"/><rect x="482.40" y="216.00" width="17.30" height="17" fill="rgb(98,90,79)"/><rect x="499.20" y="216.00" width="17.30" height="17" fill="rgb(105,96,85)"/><rect x="516.00" y="216.00" width="17.30" height="17" fill="rgb(108,99,87)"/><rect x="532.80" y="216.00" width="17.30" height="17" fill="rgb(105,96,85)"/><rect x="549.60" y="216.00" width="17.30" height="17" fill="rgb(98,90,79)"/><rect x="566.40" y="216.00" width="17.30" height="17" fill="rgb(89,81,71)"/><rect x="583.20" y="216.00" width="17.30" height="17" fill="rgb(30,28,25)"/><rect x="381.60" y="233.00" width="17.30" height="17" fill="rgb(15,14,12)"/><rect x="398.40" y="233.00" width="17.30" height="17" fill="rgb(31,29,25)"/><rect x="415.20" y="233.00" width="17.30" height="17" fill="rgb(57,52,46)"/><rect x="432.00" y="233.00" width="17.30" height="17" fill="rgb(71,65,57)"/><rect x="448.80" y="233.00" width="17.30" height="17" fill="rgb(85,78,69)"/><rect x="465.60" y="233.00" width="17.30" height="17" fill="rgb(98,90,79)"/><rect x="482.40" y="233.00" width="17.30" height="17" fill="rgb(110,101,89)"/><rect x="499.20" y="233.00" width="17.30" height="17" fill="rgb(120,109,96)"/><rect x="516.00" y="233.00" width="17.30" height="17" fill="rgb(123,113,99)"/><rect x="532.80" y="233.00" width="17.30" height="17" fill="rgb(120,109,96)"/><rect x="549.60" y="233.00" width="17.30" height="17" fill="rgb(110,101,89)"/><rect x="566.40" y="233.00" width="17.30" height="17" fill="rgb(98,90,79)"/><rect x="583.20" y="233.00" width="17.30" height="17" fill="rgb(33,30,27)"/><rect x="381.60" y="250.00" width="17.30" height="17" fill="rgb(15,14,12)"/><rect x="398.40" y="250.00" width="17.30" height="17" fill="rgb(33,31,27)"/><rect x="415.20" y="250.00" width="17.30" height="17" fill="rgb(60,55,49)"/><rect x="432.00" y="250.00" width="17.30" height="17" fill="rgb(75,69,61)"/><rect x="448.80" y="250.00" width="17.30" height="17" fill="rgb(91,83,73)"/><rect x="465.60" y="250.00" width="17.30" height="17" fill="rgb(105,96,85)"/><rect x="482.40" y="250.00" width="17.30" height="17" fill="rgb(120,109,96)"/><rect x="499.20" y="250.00" width="17.30" height="17" fill="rgb(132,121,106)"/><rect x="516.00" y="250.00" width="17.30" height="17" fill="rgb(139,127,112)"/><rect x="532.80" y="250.00" width="17.30" height="17" fill="rgb(132,121,106)"/><rect x="549.60" y="250.00" width="17.30" height="17" fill="rgb(120,109,96)"/><rect x="566.40" y="250.00" width="17.30" height="17" fill="rgb(105,96,85)"/><rect x="583.20" y="250.00" width="17.30" height="17" fill="rgb(35,32,29)"/><rect x="381.60" y="267.00" width="17.30" height="17" fill="rgb(15,14,12)"/><rect x="398.40" y="267.00" width="17.30" height="17" fill="rgb(34,32,28)"/><rect x="415.20" y="267.00" width="17.30" height="17" fill="rgb(62,56,50)"/><rect x="432.00" y="267.00" width="17.30" height="17" fill="rgb(77,71,62)"/><rect x="448.80" y="267.00" width="17.30" height="17" fill="rgb(92,85,74)"/><rect x="465.60" y="267.00" width="17.30" height="17" fill="rgb(108,99,87)"/><rect x="482.40" y="267.00" width="17.30" height="17" fill="rgb(59,41,23)"/><rect x="499.20" y="267.00" width="17.30" height="17" fill="rgb(139,127,112)"/><rect x="516.00" y="267.00" width="17.30" height="17" fill="rgb(154,141,124)"/><rect x="532.80" y="267.00" width="17.30" height="17" fill="rgb(139,127,112)"/><rect x="549.60" y="267.00" width="17.30" height="17" fill="rgb(123,113,99)"/><rect x="566.40" y="267.00" width="17.30" height="17" fill="rgb(108,99,87)"/><rect x="583.20" y="267.00" width="17.30" height="17" fill="rgb(36,33,29)"/><rect x="381.60" y="284.00" width="17.30" height="17" fill="rgb(15,14,12)"/><rect x="398.40" y="284.00" width="17.30" height="17" fill="rgb(33,31,27)"/><rect x="415.20" y="284.00" width="17.30" height="17" fill="rgb(60,55,49)"/><rect x="432.00" y="284.00" width="17.30" height="17" fill="rgb(75,69,61)"/><rect x="448.80" y="284.00" width="17.30" height="17" fill="rgb(91,83,73)"/><rect x="465.60" y="284.00" width="17.30" height="17" fill="rgb(105,96,85)"/><rect x="482.40" y="284.00" width="17.30" height="17" fill="rgb(120,109,96)"/><rect x="499.20" y="284.00" width="17.30" height="17" fill="rgb(132,121,106)"/><rect x="516.00" y="284.00" width="17.30" height="17" fill="rgb(139,127,112)"/><rect x="532.80" y="284.00" width="17.30" height="17" fill="rgb(132,121,106)"/><rect x="549.60" y="284.00" width="17.30" height="17" fill="rgb(120,109,96)"/><rect x="566.40" y="284.00" width="17.30" height="17" fill="rgb(105,96,85)"/><rect x="583.20" y="284.00" width="17.30" height="17" fill="rgb(35,32,29)"/><rect x="381.60" y="301.00" width="17.30" height="17" fill="rgb(15,14,12)"/><rect x="398.40" y="301.00" width="17.30" height="17" fill="rgb(16,15,13)"/><rect x="415.20" y="301.00" width="17.30" height="17" fill="rgb(22,20,18)"/><rect x="432.00" y="301.00" width="17.30" height="17" fill="rgb(28,25,23)"/><rect x="448.80" y="301.00" width="17.30" height="17" fill="rgb(33,30,27)"/><rect x="465.60" y="301.00" width="17.30" height="17" fill="rgb(38,35,31)"/><rect x="482.40" y="301.00" width="17.30" height="17" fill="rgb(22,16,10)"/><rect x="499.20" y="301.00" width="17.30" height="17" fill="rgb(47,43,38)"/><rect x="516.00" y="301.00" width="17.30" height="17" fill="rgb(48,44,39)"/><rect x="532.80" y="301.00" width="17.30" height="17" fill="rgb(47,43,38)"/><rect x="549.60" y="301.00" width="17.30" height="17" fill="rgb(43,39,35)"/><rect x="566.40" y="301.00" width="17.30" height="17" fill="rgb(38,35,31)"/><rect x="583.20" y="301.00" width="17.30" height="17" fill="rgb(33,30,27)"/><rect x="448.80" y="318.00" width="17.30" height="17" fill="rgb(16,14,11)"/><rect x="465.60" y="318.00" width="17.30" height="17" fill="rgb(18,16,13)"/><rect x="482.40" y="318.00" width="17.30" height="17" fill="rgb(24,20,16)"/><rect x="432.00" y="335.00" width="17.30" height="17" fill="rgb(15,13,10)"/><rect x="448.80" y="335.00" width="17.30" height="17" fill="rgb(18,16,13)"/><rect x="465.60" y="335.00" width="17.30" height="17" fill="rgb(21,19,15)"/><rect x="415.20" y="352.00" width="17.30" height="17" fill="rgb(11,9,7)"/><rect x="432.00" y="352.00" width="17.30" height="17" fill="rgb(12,11,8)"/><rect x="448.80" y="352.00" width="17.30" height="17" fill="rgb(15,13,10)"/><rect x="415.20" y="369.00" width="34.10" height="17" fill="rgb(11,9,7)"/></g>
<g xml:space="preserve"><text x="12.00" y="24.92" textLength="1008.00" lengthAdjust="spacingAndGlyphs">Brackgate  08:01  day 1  lamplit  dry plain 55% · shore 24%                                                         8, 6</text><text x="12.00" y="41.92" textLength="1008.00" lengthAdjust="spacingAndGlyphs">────────────────────────────────────────────────────────────────────────────────────────────────────────────────────────</text><text x="415.20" y="177.92" textLength="33.60" lengthAdjust="spacingAndGlyphs" fill="rgb(46,42,38)" font-weight="bold">━━━━</text><text x="448.80" y="177.92" textLength="16.80" lengthAdjust="spacingAndGlyphs" fill="rgb(51,47,42)" font-weight="bold">━━</text><text x="465.60" y="177.92" textLength="16.80" lengthAdjust="spacingAndGlyphs" fill="rgb(60,56,49)" font-weight="bold">━━</text><text x="482.40" y="177.92" textLength="16.80" lengthAdjust="spacingAndGlyphs" fill="rgb(67,62,55)" font-weight="bold">━━</text><text x="499.20" y="177.92" textLength="16.80" lengthAdjust="spacingAndGlyphs" fill="rgb(72,66,59)" font-weight="bold">━━</text><text x="516.00" y="177.92" textLength="16.80" lengthAdjust="spacingAndGlyphs" fill="rgb(73,68,60)" font-weight="bold">━━</text><text x="532.80" y="177.92" textLength="16.80" lengthAdjust="spacingAndGlyphs" fill="rgb(72,66,59)" font-weight="bold">━━</text><text x="549.60" y="177.92" textLength="16.80" lengthAdjust="spacingAndGlyphs" fill="rgb(67,62,55)" font-weight="bold">━━</text><text x="566.40" y="177.92" textLength="16.80" lengthAdjust="spacingAndGlyphs" fill="rgb(60,56,49)" font-weight="bold">━━</text><text x="583.20" y="177.92" textLength="16.80" lengthAdjust="spacingAndGlyphs" fill="rgb(51,47,42)" font-weight="bold">┓ </text><text x="398.40" y="194.92" textLength="33.60" lengthAdjust="spacingAndGlyphs" fill="rgb(18,16,14)">░░  </text><text x="432.00" y="194.92" textLength="16.80" lengthAdjust="spacingAndGlyphs" fill="rgb(21,19,16)">░░</text><text x="448.80" y="194.92" textLength="16.80" lengthAdjust="spacingAndGlyphs" fill="rgb(25,23,20)">░░</text><text x="482.40" y="194.92" textLength="16.80" lengthAdjust="spacingAndGlyphs" fill="rgb(32,30,25)">░░</text><text x="499.20" y="194.92" textLength="16.80" lengthAdjust="spacingAndGlyphs" fill="rgb(34,31,27)">░░</text><text x="516.00" y="194.92" textLength="16.80" lengthAdjust="spacingAndGlyphs" fill="rgb(35,32,28)">░░</text><text x="549.60" y="194.92" textLength="16.80" lengthAdjust="spacingAndGlyphs" fill="rgb(32,30,25)">░░</text><text x="566.40" y="194.92" textLength="16.80" lengthAdjust="spacingAndGlyphs" fill="rgb(29,27,23)">░░</text><text x="583.20" y="194.92" textLength="16.80" lengthAdjust="spacingAndGlyphs" fill="rgb(66,61,54)" font-weight="bold">┃ </text><text x="381.60" y="211.92" textLength="16.80" lengthAdjust="spacingAndGlyphs" fill="rgb(46,42,38)" font-weight="bold">┃ </text><text x="398.40" y="211.92" textLength="16.80" lengthAdjust="spacingAndGlyphs" fill="rgb(18,16,14)">░░</text><text x="415.20" y="211.92" textLength="16.80" lengthAdjust="spacingAndGlyphs" fill="rgb(26,24,21)">░░</text><text x="448.80" y="211.92" textLength="16.80" lengthAdjust="spacingAndGlyphs" fill="rgb(41,38,33)">░░</text><text x="465.60" y="211.92" textLength="16.80" lengthAdjust="spacingAndGlyphs" fill="rgb(48,44,38)">░░</text><text x="499.20" y="211.92" textLength="16.80" lengthAdjust="spacingAndGlyphs" fill="rgb(56,51,44)">░░</text><text x="516.00" y="211.92" textLength="16.80" lengthAdjust="spacingAndGlyphs" fill="rgb(57,52,45)">░░</text><text x="532.80" y="211.92" textLength="16.80" lengthAdjust="spacingAndGlyphs" fill="rgb(56,51,44)">░░</text><text x="566.40" y="211.92" textLength="16.80" lengthAdjust="spacingAndGlyphs" fill="rgb(89,28,26)" font-weight="bold">▩ </text><text x="583.20" y="211.92" textLength="16.80" lengthAdjust="spacingAndGlyphs" fill="rgb(79,73,65)" font-weight="bold">┃ </text><text x="381.60" y="228.92" textLength="16.80" lengthAdjust="spacingAndGlyphs" fill="rgb(46,42,38)" font-weight="bold">┃ </text><text x="415.20" y="228.92" textLength="16.80" lengthAdjust="spacingAndGlyphs" fill="rgb(31,29,25)">░░</text><text x="432.00" y="228.92" textLength="16.80" lengthAdjust="spacingAndGlyphs" fill="rgb(40,36,31)">░░</text><text x="465.60" y="228.92" textLength="16.80" lengthAdjust="spacingAndGlyphs" fill="rgb(55,50,43)">░░</text><text x="482.40" y="228.92" textLength="16.80" lengthAdjust="spacingAndGlyphs" fill="rgb(61,56,48)">░░</text><text x="499.20" y="228.92" textLength="16.80" lengthAdjust="spacingAndGlyphs" fill="rgb(65,59,51)">░░</text><text x="532.80" y="228.92" textLength="16.80" lengthAdjust="spacingAndGlyphs" fill="rgb(65,59,51)">░░</text><text x="549.60" y="228.92" textLength="16.80" lengthAdjust="spacingAndGlyphs" fill="rgb(61,56,48)">░░</text><text x="583.20" y="228.92" textLength="16.80" lengthAdjust="spacingAndGlyphs" fill="rgb(92,85,75)" font-weight="bold">┃ </text><text x="381.60" y="245.92" textLength="16.80" lengthAdjust="spacingAndGlyphs" fill="rgb(46,42,38)" font-weight="bold">┃ </text><text x="398.40" y="245.92" textLength="16.80" lengthAdjust="spacingAndGlyphs" fill="rgb(19,17,15)">░░</text><text x="432.00" y="245.92" textLength="16.80" lengthAdjust="spacingAndGlyphs" fill="rgb(44,40,35)">░░</text><text x="448.80" y="245.92" textLength="16.80" lengthAdjust="spacingAndGlyphs" fill="rgb(53,48,41)">░░</text><text x="465.60" y="245.92" textLength="16.80" lengthAdjust="spacingAndGlyphs" fill="rgb(108,78,44)">▨ </text><text x="482.40" y="245.92" textLength="16.80" lengthAdjust="spacingAndGlyphs" fill="rgb(68,62,54)">░░</text><text x="499.20" y="245.92" textLength="16.80" lengthAdjust="spacingAndGlyphs" fill="rgb(74,68,58)">░░</text><text x="516.00" y="245.92" textLength="16.80" lengthAdjust="spacingAndGlyphs" fill="rgb(76,70,60)">░░</text><text x="549.60" y="245.92" textLength="16.80" lengthAdjust="spacingAndGlyphs" fill="rgb(68,62,54)">░░</text><text x="566.40" y="245.92" textLength="16.80" lengthAdjust="spacingAndGlyphs" fill="rgb(61,56,48)">░░</text><text x="583.20" y="245.92" textLength="16.80" lengthAdjust="spacingAndGlyphs" fill="rgb(101,93,83)" font-weight="bold">┃ </text><text x="381.60" y="262.92" textLength="16.80" lengthAdjust="spacingAndGlyphs" fill="rgb(46,42,38)" font-weight="bold">┃ </text><text x="398.40" y="262.92" textLength="16.80" lengthAdjust="spacingAndGlyphs" fill="rgb(21,19,16)">░░</text><text x="415.20" y="262.92" textLength="16.80" lengthAdjust="spacingAndGlyphs" fill="rgb(37,34,29)">░░</text><text x="448.80" y="262.92" textLength="16.80" lengthAdjust="spacingAndGlyphs" fill="rgb(56,51,44)">░░</text><text x="465.60" y="262.92" textLength="16.80" lengthAdjust="spacingAndGlyphs" fill="rgb(65,59,51)">░░</text><text x="482.40" y="262.92" textLength="16.80" lengthAdjust="spacingAndGlyphs" fill="rgb(74,68,58)">░░</text><text x="516.00" y="262.92" textLength="16.80" lengthAdjust="spacingAndGlyphs" fill="rgb(209,195,174)" font-weight="bold">A </text><text x="532.80" y="262.92" textLength="16.80" lengthAdjust="spacingAndGlyphs" fill="rgb(82,75,64)">░░</text><text x="566.40" y="262.92" textLength="16.80" lengthAdjust="spacingAndGlyphs" fill="rgb(65,59,51)">░░</text><text x="583.20" y="262.92" textLength="16.80" lengthAdjust="spacingAndGlyphs" fill="rgb(108,99,88)" font-weight="bold">┃ </text><text x="381.60" y="279.92" textLength="16.80" lengthAdjust="spacingAndGlyphs" fill="rgb(46,42,38)" font-weight="bold">┃ </text><text x="415.20" y="279.92" textLength="16.80" lengthAdjust="spacingAndGlyphs" fill="rgb(30,20,12)">◍ </text><text x="432.00" y="279.92" textLength="16.80" lengthAdjust="spacingAndGlyphs" fill="rgb(48,44,38)">░░</text><text x="448.80" y="279.92" textLength="16.80" lengthAdjust="spacingAndGlyphs" fill="rgb(139,130,116)" font-weight="bold">S </text><text x="482.40" y="279.92" textLength="16.80" lengthAdjust="spacingAndGlyphs" fill="rgb(142,45,42)">▒▒</text><text x="499.20" y="279.92" textLength="16.80" lengthAdjust="spacingAndGlyphs" fill="rgb(85,78,67)">░░</text><text x="516.00" y="279.92" textLength="16.80" lengthAdjust="spacingAndGlyphs" fill="rgb(127,245,96)" font-weight="bold">@ </text><text x="532.80" y="279.92" textLength="16.80" lengthAdjust="spacingAndGlyphs" fill="rgb(85,78,67)">░░</text><text x="549.60" y="279.92" textLength="16.80" lengthAdjust="spacingAndGlyphs" fill="rgb(76,70,60)">░░</text><text x="583.20" y="279.92" textLength="16.80" lengthAdjust="spacingAndGlyphs" fill="rgb(110,101,90)" font-weight="bold">┃ </text><text x="381.60" y="296.92" textLength="16.80" lengthAdjust="spacingAndGlyphs" fill="rgb(46,42,38)" font-weight="bold">┃ </text><text x="398.40" y="296.92" textLength="16.80" lengthAdjust="spacingAndGlyphs" fill="rgb(21,19,16)">░░</text><text x="432.00" y="296.92" textLength="16.80" lengthAdjust="spacingAndGlyphs" fill="rgb(83,60,34)">▨ </text><text x="448.80" y="296.92" textLength="16.80" lengthAdjust="spacingAndGlyphs" fill="rgb(56,51,44)">░░</text><text x="465.60" y="296.92" textLength="16.80" lengthAdjust="spacingAndGlyphs" fill="rgb(65,59,51)">░░</text><text x="499.20" y="296.92" textLength="16.80" lengthAdjust="spacingAndGlyphs" fill="rgb(82,75,64)">░░</text><text x="516.00" y="296.92" textLength="16.80" lengthAdjust="spacingAndGlyphs" fill="rgb(85,78,67)">░░</text><text x="549.60" y="296.92" textLength="16.80" lengthAdjust="spacingAndGlyphs" fill="rgb(74,68,58)">░░</text><text x="566.40" y="296.92" textLength="16.80" lengthAdjust="spacingAndGlyphs" fill="rgb(94,86,74)" font-weight="bold">▟ </text><text x="583.20" y="296.92" textLength="16.80" lengthAdjust="spacingAndGlyphs" fill="rgb(108,99,88)" font-weight="bold">┃ </text><text x="381.60" y="313.92" textLength="16.80" lengthAdjust="spacingAndGlyphs" fill="rgb(46,42,38)" font-weight="bold">┗━</text><text x="398.40" y="313.92" textLength="16.80" lengthAdjust="spacingAndGlyphs" fill="rgb(50,46,41)" font-weight="bold">━━</text><text x="415.20" y="313.92" textLength="16.80" lengthAdjust="spacingAndGlyphs" fill="rgb(67,62,55)" font-weight="bold">━━</text><text x="432.00" y="313.92" textLength="16.80" lengthAdjust="spacingAndGlyphs" fill="rgb(84,78,69)" font-weight="bold">━━</text><text x="448.80" y="313.92" textLength="16.80" lengthAdjust="spacingAndGlyphs" fill="rgb(101,93,83)" font-weight="bold">━━</text><text x="465.60" y="313.92" textLength="16.80" lengthAdjust="spacingAndGlyphs" fill="rgb(117,108,96)" font-weight="bold">━━</text><text x="482.40" y="313.92" textLength="16.80" lengthAdjust="spacingAndGlyphs" fill="rgb(115,83,31)" font-weight="bold">/ </text><text x="499.20" y="313.92" textLength="16.80" lengthAdjust="spacingAndGlyphs" fill="rgb(142,131,116)" font-weight="bold">━━</text><text x="516.00" y="313.92" textLength="16.80" lengthAdjust="spacingAndGlyphs" fill="rgb(146,135,120)" font-weight="bold">━━</text><text x="532.80" y="313.92" textLength="16.80" lengthAdjust="spacingAndGlyphs" fill="rgb(142,131,116)" font-weight="bold">━━</text><text x="549.60" y="313.92" textLength="16.80" lengthAdjust="spacingAndGlyphs" fill="rgb(131,121,108)" font-weight="bold">━━</text><text x="566.40" y="313.92" textLength="16.80" lengthAdjust="spacingAndGlyphs" fill="rgb(117,108,96)" font-weight="bold">━━</text><text x="583.20" y="313.92" textLength="16.80" lengthAdjust="spacingAndGlyphs" fill="rgb(101,93,83)" font-weight="bold">┛ </text><text x="776.40" y="364.92" textLength="235.20" lengthAdjust="spacingAndGlyphs" fill="rgb(183,176,166)">╭──────────────────────────╮</text><text x="776.40" y="381.92" textLength="8.40" lengthAdjust="spacingAndGlyphs" fill="rgb(183,176,166)">│</text><text x="1003.20" y="381.92" textLength="8.40" lengthAdjust="spacingAndGlyphs" fill="rgb(183,176,166)">│</text><text x="776.40" y="398.92" textLength="8.40" lengthAdjust="spacingAndGlyphs" fill="rgb(183,176,166)">│</text><text x="868.80" y="398.92" textLength="16.80" lengthAdjust="spacingAndGlyphs" fill="rgb(95,176,74)">░░</text><text x="885.60" y="398.92" textLength="16.80" lengthAdjust="spacingAndGlyphs" fill="rgb(47,111,181)">~~</text><text x="902.40" y="398.92" textLength="16.80" lengthAdjust="spacingAndGlyphs" fill="rgb(95,176,74)">░░</text><text x="1003.20" y="398.92" textLength="8.40" lengthAdjust="spacingAndGlyphs" fill="rgb(183,176,166)">│</text><text x="776.40" y="415.92" textLength="8.40" lengthAdjust="spacingAndGlyphs" fill="rgb(183,176,166)">│</text><text x="868.80" y="415.92" textLength="16.80" lengthAdjust="spacingAndGlyphs" fill="rgb(224,207,154)">. </text><text x="885.60" y="415.92" textLength="16.80" lengthAdjust="spacingAndGlyphs" fill="rgb(127,255,106)" font-weight="bold">@ </text><text x="902.40" y="415.92" textLength="16.80" lengthAdjust="spacingAndGlyphs" fill="rgb(63,143,51)">▲ </text><text x="1003.20" y="415.92" textLength="8.40" lengthAdjust="spacingAndGlyphs" fill="rgb(183,176,166)">│</text><text x="776.40" y="432.92" textLength="8.40" lengthAdjust="spacingAndGlyphs" fill="rgb(183,176,166)">│</text><text x="868.80" y="432.92" textLength="16.80" lengthAdjust="spacingAndGlyphs" fill="rgb(95,176,74)">░░</text><text x="885.60" y="432.92" textLength="16.80" lengthAdjust="spacingAndGlyphs" fill="rgb(232,201,106)" font-weight="bold">□ </text><text x="902.40" y="432.92" textLength="16.80" lengthAdjust="spacingAndGlyphs" fill="rgb(214,185,92)">░░</text><text x="1003.20" y="432.92" textLength="8.40" lengthAdjust="spacingAndGlyphs" fill="rgb(183,176,166)">│</text><text x="776.40" y="449.92" textLength="8.40" lengthAdjust="spacingAndGlyphs" fill="rgb(183,176,166)">│</text><text x="1003.20" y="449.92" textLength="8.40" lengthAdjust="spacingAndGlyphs" fill="rgb(183,176,166)">│</text><text x="776.40" y="466.92" textLength="235.20" lengthAdjust="spacingAndGlyphs" fill="rgb(183,176,166)">╰──────────────────────────╯</text><text x="12.00" y="500.92" textLength="1008.00" lengthAdjust="spacingAndGlyphs">╭──────────────────────────────────────────────────────────────────────────────────────────────────────────────────────╮</text><text x="12.00" y="517.92" textLength="1008.00" lengthAdjust="spacingAndGlyphs">│ Garrow Harrowgate is here. Press SPACE to speak.                                                                     │</text><text x="12.00" y="534.92" textLength="1008.00" lengthAdjust="spacingAndGlyphs">│                                                                                                                      │</text><text x="12.00" y="551.92" textLength="1008.00" lengthAdjust="spacingAndGlyphs">╰──────────────────────────────────────────────────────────────────────────────────────────────────────────────────────╯</text><text x="12.00" y="568.92" textLength="1008.00" lengthAdjust="spacingAndGlyphs">Arrows move  ·  Space look/act  ·  M menu                                                                    S save+quit</text></g>
</svg>